<svg xmlns="http://www.w3.org/2000/svg" viewBox="0 0 192 192" width="192" height="192">
  <defs>
    <radialGradient id="bg2" cx="50%" cy="40%" r="70%">
      <stop offset="0%" stop-color="#1E1A14"/>
      <stop offset="100%" stop-color="#0D0B08"/>
    </radialGradient>
    <linearGradient id="gold2" x1="0%" y1="0%" x2="100%" y2="100%">
      <stop offset="0%" stop-color="#D4A84B"/>
      <stop offset="40%" stop-color="#F2D98B"/>
      <stop offset="60%" stop-color="#C9A84C"/>
      <stop offset="100%" stop-color="#997B3D"/>
    </linearGradient>
    <radialGradient id="glow2" cx="50%" cy="42%" r="35%">
      <stop offset="0%" stop-color="#C9A84C" stop-opacity="0.15"/>
      <stop offset="100%" stop-color="#C9A84C" stop-opacity="0"/>
    </radialGradient>
    <linearGradient id="ring2" x1="0%" y1="0%" x2="100%" y2="100%">
      <stop offset="0%" stop-color="#C9A84C" stop-opacity="0.45"/>
      <stop offset="50%" stop-color="#997B3D" stop-opacity="0.12"/>
      <stop offset="100%" stop-color="#C9A84C" stop-opacity="0.35"/>
    </linearGradient>
  </defs>

  <!-- Background -->
  <rect width="192" height="192" rx="42" fill="url(#bg2)"/>

  <!-- Border -->
  <rect x="2" y="2" width="188" height="188" rx="40" fill="none" stroke="url(#ring2)" stroke-width="1"/>

  <!-- Glow -->
  <circle cx="96" cy="82" r="60" fill="url(#glow2)"/>

  <!-- Tower Logo (scaled for 192px) -->
  <g transform="translate(96,80) scale(4.2)" fill="url(#gold2)">
    <path d="M0,-11.3L-0.5,-7.8H0.5L0,-11.3Z"/>
    <path d="M-0.6,-6.8L-1,-2.8H1L0.6,-6.8H-0.6Z"/>
    <path d="M-0.9,-1.8L-2,3.7H2L0.9,-1.8H-0.9Z"/>
    <path d="M0,0.2C0,0.2 -1,0.2 -1,1.2C-1,2.2 0,2.2 0,2.2V0.2Z"/>
    <path d="M-2.9,5.2L-4.5,8.7H-1.9C-1.9,8.7 -1.7,7.2 0,7.2C1.7,7.2 1.9,8.7 1.9,8.7H4.5L2.9,5.2H-2.9Z"/>
    <path d="M-5.5,8.7L-6,11.2H-3L-3.5,8.7H-5.5Z"/>
    <path d="M5.5,8.7L6,11.2H3L3.5,8.7H5.5Z"/>
  </g>

  <!-- Brand text -->
  <text x="96" y="142" text-anchor="middle" font-family="Georgia, 'Times New Roman', serif" font-size="13" fill="#C9A84C" letter-spacing="2.5" opacity="0.9">GOLDEN TOWER</text>
  <text x="96" y="160" text-anchor="middle" font-family="Georgia, 'Times New Roman', serif" font-size="10" fill="#997B3D" letter-spacing="5" opacity="0.6">SPA</text>
</svg>
